<?xml version="1.0" standalone="no"?>
<!DOCTYPE svg PUBLIC "-//W3C//DTD SVG 20010904//EN"
 "http://www.w3.org/TR/2001/REC-SVG-20010904/DTD/svg10.dtd">
<svg version="1.0" xmlns="http://www.w3.org/2000/svg"
 width="160.000000pt" height="160.000000pt" viewBox="0 0 160.000000 160.000000"
 preserveAspectRatio="xMidYMid meet">
<metadata>
Created by potrace 1.11, written by Peter Selinger 2001-2013
</metadata>
<g transform="translate(0.000000,160.000000) scale(0.100000,-0.100000)"
fill="#000000" stroke="none">
<path d="M825 1593 c-11 -3 -44 -22 -73 -42 -29 -20 -62 -40 -73 -46 -10 -5
-19 -15 -19 -22 0 -6 -9 -14 -19 -18 -34 -11 -71 -46 -87 -83 -8 -20 -37 -56
-64 -81 -27 -26 -51 -53 -52 -61 -2 -8 -7 -18 -11 -21 -23 -17 -40 -315 -24
-414 2 -16 1 -38 -4 -47 -6 -11 -6 -25 0 -35 10 -19 29 -86 33 -117 3 -20 -7
-28 -65 -50 -20 -8 -37 -20 -37 -25 0 -10 22 -8 88 5 13 3 22 -1 23 -8 0 -7 2
-22 4 -33 2 -11 0 -37 -6 -58 -7 -27 -7 -42 1 -51 8 -11 -9 -16 -87 -25 -54
-7 -131 -19 -172 -27 -84 -16 -121 -18 -121 -5 0 5 -11 9 -25 9 -14 0 -28 -4
-31 -9 -3 -5 8 -9 25 -9 16 0 33 -4 36 -10 3 -5 16 -10 28 -10 12 0 93 -15
180 -33 86 -19 157 -31 157 -27 0 3 14 14 30 23 37 22 38 12 3 -25 -23 -24
-27 -36 -25 -81 2 -60 7 -91 23 -129 l11 -28 407 1 c223 0 400 3 394 6 -7 2
-13 9 -13 15 0 6 8 4 18 -5 16 -14 43 -17 170 -17 l152 0 0 220 0 220 -49 0
c-30 0 -51 -5 -54 -12 -8 -19 4 189 13 242 5 25 7 74 5 110 -1 36 2 87 7 113
7 34 6 74 -2 130 -12 87 -36 139 -116 252 -23 33 -54 87 -69 120 -36 77 -67
105 -180 160 l-92 45 -109 -1 c-60 -1 -118 -4 -129 -6z m152 -115 c-3 -8 -6
-5 -6 6 -1 11 2 17 5 13 3 -3 4 -12 1 -19z m33 7 c11 -13 10 -14 -4 -9 -9 3
-16 10 -16 15 0 13 6 11 20 -6z m-119 -18 c-10 -9 -11 -8 -5 6 3 10 9 15 12
12 3 -3 0 -11 -7 -18z m57 16 c-21 -5 -24 -29 -5 -35 6 -2 31 -3 54 -2 33 2
42 -1 46 -17 5 -20 27 -27 27 -9 0 6 -4 10 -10 10 -5 0 -10 5 -10 11 0 5 5 7
10 4 21 -13 9 13 -12 27 -22 15 -21 15 12 16 19 0 38 -2 44 -5 6 -4 23 -8 38
-10 96 -10 239 -163 237 -253 l-1 -25 -8 27 c-4 14 -12 32 -16 40 -5 7 -9 18
-9 23 -2 23 -18 44 -29 38 -18 -12 -46 -14 -46 -4 0 6 9 8 20 6 12 -2 20 2 20
10 0 21 -80 94 -96 88 -8 -3 -14 0 -14 6 0 5 -19 15 -42 21 -24 6 -53 16 -65
22 -13 6 -26 8 -30 5 -3 -4 -1 -7 5 -7 7 0 10 -21 10 -55 -1 -30 1 -57 4 -61
6 -6 20 28 17 42 -4 22 2 33 16 28 11 -5 12 -11 5 -24 -13 -25 -13 -30 4 -30
10 0 14 10 12 35 -3 29 -1 33 10 24 8 -7 11 -21 8 -35 -4 -15 -2 -24 6 -24 7
0 10 7 7 15 -4 8 -2 17 4 20 5 4 6 11 3 17 -4 6 -3 8 3 5 6 -4 9 -17 8 -31 -3
-26 22 -40 46 -25 14 8 10 11 -21 13 -21 1 -15 21 7 23 10 1 31 -14 48 -35 16
-20 20 -29 9 -19 -28 23 -37 22 -29 -5 7 -23 7 -23 -9 -3 -15 20 -15 20 -16
-2 0 -15 6 -23 18 -24 10 0 12 -3 5 -6 -7 -2 -13 -9 -13 -15 0 -6 7 -8 15 -4
9 3 15 0 15 -9 0 -9 -6 -12 -15 -9 -9 4 -15 0 -15 -10 0 -9 7 -16 15 -16 13 0
14 -4 5 -20 -10 -18 -8 -19 13 -11 20 8 23 6 25 -16 1 -14 -2 -22 -8 -18 -6 4
-8 11 -5 16 4 5 1 9 -4 9 -6 0 -11 -7 -11 -16 0 -9 -5 -12 -11 -8 -7 4 -25 7
-40 6 -16 0 -31 3 -34 7 -4 7 -85 4 -93 -4 -2 -2 1 -12 7 -22 10 -17 10 -17
11 2 0 15 2 17 9 6 6 -9 10 -10 16 -2 4 7 15 9 28 5 21 -7 46 -11 75 -13 8 -1
10 -6 6 -13 -5 -10 -4 -10 6 -1 7 7 22 8 39 4 14 -5 32 -6 40 -3 12 4 12 3 0
-10 -8 -9 -16 -12 -19 -8 -3 5 -26 9 -50 9 -61 0 -80 3 -80 11 0 4 -18 4 -41
0 -36 -7 -42 -5 -56 17 -12 18 -18 21 -24 11 -6 -9 -9 -8 -10 7 0 19 -1 18
-11 -2 -15 -32 -30 -29 -21 5 4 15 7 44 7 65 -1 20 3 37 8 37 4 0 8 -15 8 -34
0 -21 6 -36 16 -40 9 -3 12 -2 9 4 -4 6 -8 23 -10 38 l-4 28 65 0 c36 -1 64 3
64 9 0 6 -8 10 -19 11 -10 1 -23 4 -30 8 -6 4 -11 2 -11 -4 0 -6 -4 -8 -10 -5
-6 4 -5 11 3 19 6 8 14 10 17 6 7 -11 60 -9 60 2 0 6 -9 8 -19 5 -10 -2 -24
-1 -31 3 -18 11 -62 -10 -56 -26 5 -13 -8 -13 -76 1 -18 3 -45 -21 -35 -32 4
-3 13 0 22 7 12 10 15 10 15 -3 0 -8 -9 -17 -20 -20 -11 -3 -20 -10 -20 -17 0
-7 8 -9 20 -5 11 4 20 2 20 -4 0 -6 -5 -11 -11 -11 -8 0 -8 -5 1 -15 10 -12 9
-15 -4 -15 -14 0 -15 -4 -6 -20 6 -11 7 -20 1 -20 -12 0 -25 30 -22 53 1 9 -2
17 -8 17 -6 0 -8 -7 -5 -15 4 -8 1 -15 -6 -15 -6 0 -8 -4 -5 -10 4 -6 -4 -9
-17 -7 -16 1 -22 -3 -20 -14 1 -9 -4 -16 -10 -16 -7 0 -13 11 -13 24 0 13 3
23 8 23 4 0 7 5 7 10 0 15 -30 12 -31 -2 -1 -7 -1 -24 0 -38 0 -24 0 -24 -9 3
-4 15 -7 46 -6 67 3 44 -1 49 -20 23 -8 -13 -9 -22 -2 -30 6 -7 8 -19 5 -27
-5 -13 -20 -15 -69 -7 -5 0 -8 6 -8 13 0 9 3 9 12 0 16 -16 28 -15 28 3 0 10
-11 15 -35 15 -26 0 -33 -3 -29 -15 4 -8 1 -15 -6 -15 -6 0 -10 10 -8 22 3 24
36 31 71 15 16 -7 18 -5 12 13 -5 15 -4 20 4 16 6 -4 11 -3 11 3 0 15 -41 40
-56 34 -8 -3 -17 2 -20 11 -3 9 -10 13 -15 10 -5 -3 -6 -10 -3 -16 4 -6 2 -8
-4 -4 -6 3 -10 15 -9 25 1 18 23 20 58 6 10 -3 20 -1 24 5 9 14 -4 28 -13 14
-5 -6 -19 -6 -42 3 -35 12 -23 19 24 15 13 -2 16 3 12 13 -3 9 1 18 10 22 11
4 14 13 10 29 -4 14 -2 24 4 24 6 0 9 -4 6 -9 -10 -15 19 -31 52 -28 18 1 32
5 32 8 0 4 8 6 17 5 12 0 19 7 21 22 2 15 10 22 25 21 17 -1 18 -2 5 -6z
m-105 -20 c-7 -2 -19 -2 -25 0 -7 3 -2 5 12 5 14 0 19 -2 13 -5z m-80 -30 c-7
-3 -13 -12 -13 -21 0 -12 -3 -13 -12 -4 -9 9 -8 15 8 26 10 8 21 12 24 9 3 -3
-1 -8 -7 -10z m-49 -34 c-3 -5 -11 -9 -17 -8 -9 0 -8 2 1 6 6 2 10 9 6 14 -3
5 -14 5 -27 -2 -21 -10 -21 -9 -3 5 14 12 23 13 33 5 7 -6 10 -15 7 -20z m-37
-65 c2 -13 1 -15 -4 -4 -3 8 -11 19 -17 23 -7 6 -6 7 4 4 8 -2 16 -12 17 -23z
m49 -40 c15 6 16 5 7 -5 -20 -20 -39 -18 -41 5 -1 15 1 17 7 7 6 -9 16 -11 27
-7z m49 -4 c3 -5 -1 -10 -10 -10 -9 0 -13 5 -10 10 3 6 8 10 10 10 2 0 7 -4
10 -10z m-48 -125 c2 -14 0 -25 -5 -25 -5 0 -8 13 -8 30 0 34 9 31 13 -5z
m101 12 c1 -4 2 -13 2 -19 0 -10 -2 -10 -9 0 -5 9 -18 11 -37 6 -27 -6 -28 -5
-10 8 19 15 49 18 54 5z m-141 -29 c-3 -7 -5 -2 -5 12 0 14 2 19 5 13 2 -7 2
-19 0 -25z m257 25 c-5 -5 -12 -12 -16 -18 -4 -6 -8 -2 -8 8 0 9 7 17 17 17 9
0 12 -3 7 -7z m-371 -67 c-10 -13 -19 -23 -21 -21 -5 5 22 45 31 45 4 0 0 -11
-10 -24z m427 -46 c33 0 58 -162 29 -182 -8 -5 -26 -11 -42 -15 -36 -7 -45
-23 -14 -23 24 0 30 -21 13 -48 -4 -7 -5 -16 -1 -20 11 -11 36 30 29 50 -3 10
-1 18 5 18 12 0 15 -49 3 -66 -4 -6 -17 -13 -29 -16 -26 -7 -39 17 -22 39 7 7
9 16 5 20 -3 3 -6 1 -6 -5 0 -7 -7 -12 -15 -12 -10 0 -15 11 -15 35 0 31 3 35
26 35 44 0 64 17 64 56 0 45 -24 41 -28 -4 -2 -21 -9 -32 -19 -32 -9 0 -13 6
-10 15 4 8 2 17 -3 20 -6 4 -10 -2 -11 -12 0 -16 -1 -16 -9 2 -13 30 -12 47 3
40 6 -4 1 2 -12 13 -18 15 -21 21 -10 25 10 4 11 8 3 14 -16 12 -13 42 3 36 9
-4 11 0 7 11 -3 9 -1 16 5 16 6 0 8 8 4 18 -4 11 0 10 11 -5 10 -13 25 -23 36
-23z m20 20 c0 -5 -2 -10 -4 -10 -3 0 -8 5 -11 10 -3 6 -1 10 4 10 6 0 11 -4
11 -10z m-513 -42 c-3 -8 -6 -5 -6 6 -1 11 2 17 5 13 3 -3 4 -12 1 -19z m578
-97 c-4 -15 1 -23 19 -33 14 -7 25 -17 25 -23 0 -5 8 -11 18 -13 15 -3 16 -1
3 7 -20 14 -4 14 22 0 21 -11 21 -12 3 -25 -17 -12 -17 -14 -2 -14 9 0 22 8
28 19 10 15 18 17 46 10 51 -11 54 -21 5 -14 -25 3 -42 1 -42 -5 0 -6 9 -10
20 -10 11 0 20 -4 20 -10 0 -5 -9 -10 -20 -10 -11 0 -20 -4 -20 -8 0 -5 13 -9
29 -9 22 0 27 4 24 18 -4 14 0 16 16 12 14 -4 21 -1 21 10 0 8 10 17 23 21 25
6 33 4 30 -6 -2 -5 9 -8 23 -8 14 0 23 -4 19 -10 -4 -6 -11 -8 -16 -5 -18 11
-31 -6 -17 -23 11 -13 10 -14 -14 -8 -17 4 -28 2 -28 -4 0 -5 11 -12 25 -16
30 -8 33 -25 4 -21 -12 1 -24 -4 -26 -10 -3 -8 6 -13 24 -14 21 -1 23 -3 8 -6
-11 -3 -24 -11 -30 -18 -5 -7 -23 -15 -39 -18 -22 -4 -35 1 -53 21 -17 19 -20
27 -11 33 7 4 9 11 5 15 -4 4 -13 2 -19 -4 -18 -18 -33 -15 -18 3 11 13 10 14
-4 9 -9 -3 -16 -10 -16 -16 0 -5 -4 -7 -10 -3 -5 3 -7 12 -3 20 5 14 -8 19
-45 18 -10 -1 -10 2 -1 13 7 8 9 17 5 21 -3 3 -6 1 -6 -5 0 -20 -17 -13 -23 9
-4 15 0 23 13 26 27 7 8 43 -23 43 -16 0 -18 3 -8 9 9 6 10 11 2 15 -8 5 -7
11 2 21 17 19 19 18 12 -4z m-309 -40 c-10 -11 -25 -19 -34 -19 -10 1 -46 -2
-82 -5 -49 -5 -58 -4 -35 3 17 6 54 12 83 14 29 2 58 8 65 15 19 19 21 12 3
-8z m498 0 c3 -5 20 -7 38 -5 30 4 31 3 13 -10 -13 -9 -22 -11 -26 -4 -3 5 -9
9 -13 9 -3 -1 -18 -1 -33 -1 -22 0 -25 2 -13 10 19 12 27 12 34 1z m121 -11
c3 -5 1 -10 -4 -10 -6 0 -11 5 -11 10 0 6 2 10 4 10 3 0 8 -4 11 -10z m-638
-82 c-7 -94 -8 -95 -82 -95 -35 1 -62 3 -60 5 2 3 0 14 -6 25 -8 14 -8 18 0
13 6 -4 11 -5 11 -2 0 2 3 12 7 21 5 14 2 16 -15 11 -25 -8 -31 2 -21 34 l9
25 -3 -25 c-3 -24 0 -26 34 -26 31 0 35 2 23 14 -8 7 -14 17 -14 22 0 5 -7 7
-15 4 -8 -4 -15 -1 -15 6 0 7 9 10 23 7 12 -3 42 1 67 8 25 7 49 13 53 14 5 0
6 -27 4 -61z m37 47 c-4 -10 0 -15 12 -15 18 -1 18 -1 2 -11 -10 -6 -18 -22
-18 -37 0 -21 2 -24 10 -12 8 12 10 11 10 -7 0 -13 -4 -23 -9 -23 -18 0 -28
27 -25 70 3 55 2 50 14 50 5 0 7 -7 4 -15z m-314 -40 c0 -14 -2 -25 -4 -25 -2
0 -6 11 -8 25 -3 14 -1 25 3 25 5 0 9 -11 9 -25z m467 -31 c-3 -3 -12 -4 -19
-1 -8 3 -5 6 6 6 11 1 17 -2 13 -5z m-171 -60 c-4 -9 -9 -15 -11 -12 -3 3 -3
13 1 22 4 9 9 15 11 12 3 -3 3 -13 -1 -22z m428 -6 c-3 -4 -11 -5 -19 -1 -21
7 -19 12 4 10 11 0 18 -5 15 -9z m-494 -30 c0 -4 -19 -8 -42 -7 -34 1 -38 2
-18 8 32 9 60 9 60 -1z m470 2 c0 -5 -8 -10 -17 -10 -15 0 -16 2 -3 10 19 12
20 12 20 0z m110 -10 c0 -5 -5 -10 -11 -10 -5 0 -7 5 -4 10 3 6 8 10 11 10 2
0 4 -4 4 -10z m40 6 c0 -2 -7 -9 -15 -16 -13 -11 -14 -10 -9 4 5 14 24 23 24
12z m-125 -35 c-3 -6 -11 -11 -16 -11 -5 0 -4 6 3 14 14 16 24 13 13 -3z
m-525 0 c0 -5 -7 -11 -14 -14 -10 -4 -13 -1 -9 9 6 15 23 19 23 5z m60 -5 c0
-3 -4 -8 -10 -11 -5 -3 -10 -1 -10 4 0 6 5 11 10 11 6 0 10 -2 10 -4z m597
-22 c-3 -3 -12 -4 -19 -1 -8 3 -5 6 6 6 11 1 17 -2 13 -5z"/>
<path d="M920 1420 c0 -5 7 -10 15 -10 8 0 15 5 15 10 0 6 -7 10 -15 10 -8 0
-15 -4 -15 -10z"/>
<path d="M960 1421 c0 -5 11 -8 25 -7 38 4 43 16 7 16 -18 0 -32 -4 -32 -9z"/>
<path d="M820 1401 c0 -11 -4 -23 -10 -26 -19 -12 -10 -27 13 -22 21 6 21 6 2
-9 -11 -8 -25 -12 -32 -10 -7 3 -15 1 -18 -4 -4 -6 1 -10 10 -10 8 0 18 -7 22
-16 3 -8 12 -13 20 -10 8 4 20 3 26 -1 5 -3 23 -7 39 -8 23 -2 28 1 28 21 0
28 -8 30 -26 7 -12 -17 -13 -16 -14 4 0 13 9 27 21 33 15 9 18 15 9 24 -5 8
-8 21 -4 30 5 13 -1 16 -40 16 -39 0 -46 -3 -46 -19z m30 -11 c0 -5 -5 -10
-11 -10 -5 0 -7 5 -4 10 3 6 8 10 11 10 2 0 4 -4 4 -10z m40 6 c0 -3 -4 -8
-10 -11 -5 -3 -10 -1 -10 4 0 6 5 11 10 11 6 0 10 -2 10 -4z m0 -35 c0 -5 -7
-12 -16 -15 -10 -4 -14 -12 -10 -22 4 -10 1 -14 -6 -12 -19 7 -20 24 -3 42 18
18 35 21 35 7z"/>
<path d="M924 1389 c-6 -10 6 -14 35 -14 13 0 26 5 28 10 3 11 -56 15 -63 4z"/>
<path d="M1005 1390 c-3 -5 1 -10 10 -10 9 0 13 5 10 10 -3 6 -8 10 -10 10 -2
0 -7 -4 -10 -10z"/>
<path d="M1040 1391 c0 -5 5 -13 10 -16 6 -3 10 -2 10 4 0 5 -4 13 -10 16 -5
3 -10 2 -10 -4z"/>
<path d="M970 1356 c0 -2 9 -6 20 -9 11 -3 20 -1 20 4 0 5 -9 9 -20 9 -11 0
-20 -2 -20 -4z"/>
<path d="M1030 1350 c-12 -8 -9 -10 13 -10 16 0 26 4 22 10 -8 12 -16 12 -35
0z"/>
<path d="M730 1346 c0 -2 7 -9 15 -16 9 -7 15 -8 15 -2 0 5 -7 12 -15 16 -8 3
-15 4 -15 2z"/>
<path d="M1190 1340 c0 -5 5 -10 10 -10 6 0 10 5 10 10 0 6 -4 10 -10 10 -5 0
-10 -4 -10 -10z"/>
<path d="M935 1301 c-3 -5 -1 -12 5 -16 5 -3 10 1 10 9 0 18 -6 21 -15 7z"/>
<path d="M1190 1301 c0 -5 7 -11 14 -14 10 -4 13 -1 9 9 -6 15 -23 19 -23 5z"/>
<path d="M1120 1276 c0 -19 45 -22 56 -4 5 8 2 9 -11 5 -9 -4 -24 -2 -31 4
-11 9 -14 8 -14 -5z"/>
<path d="M1071 1271 c-8 -5 -9 -11 -3 -15 6 -3 13 -2 17 4 4 6 11 7 17 4 7 -4
8 -2 4 4 -8 14 -16 15 -35 3z"/>
<path d="M1190 1270 c0 -6 5 -10 11 -10 6 0 9 -7 6 -15 -4 -8 -2 -17 3 -20 6
-4 10 5 10 18 0 14 -7 27 -15 31 -8 3 -15 1 -15 -4z"/>
<path d="M855 1260 c-4 -7 10 -9 40 -6 60 5 66 12 11 14 -25 1 -48 -2 -51 -8z"/>
<path d="M1160 1244 c0 -3 7 -12 15 -20 16 -17 18 -14 9 10 -6 15 -24 23 -24
10z"/>
<path d="M902 1229 c2 -7 10 -15 17 -17 8 -3 12 1 9 9 -2 7 -10 15 -17 17 -8
3 -12 -1 -9 -9z"/>
<path d="M970 950 c0 -5 5 -10 10 -10 6 0 10 5 10 10 0 6 -4 10 -10 10 -5 0
-10 -4 -10 -10z"/>
<path d="M1324 845 c-9 -22 1 -29 15 -11 8 10 9 16 1 21 -5 3 -13 -1 -16 -10z"/>
<path d="M1280 811 c0 -6 5 -13 10 -16 6 -3 10 1 10 9 0 9 -4 16 -10 16 -5 0
-10 -4 -10 -9z"/>
<path d="M1241 754 c-12 -14 -12 -17 0 -25 20 -12 37 -11 19 2 -11 8 -12 12
-2 16 13 5 17 23 5 23 -5 -1 -14 -8 -22 -16z"/>
<path d="M1290 760 c0 -5 5 -10 10 -10 6 0 10 5 10 10 0 6 -4 10 -10 10 -5 0
-10 -4 -10 -10z"/>
<path d="M1290 720 c0 -5 5 -10 10 -10 6 0 10 5 10 10 0 6 -4 10 -10 10 -5 0
-10 -4 -10 -10z"/>
<path d="M698 842 c-21 -2 -38 -7 -38 -12 0 -7 71 -21 78 -14 2 1 2 8 0 16 -2
9 -16 12 -40 10z"/>
<path d="M680 791 c-10 -20 3 -40 15 -22 3 6 12 8 19 5 7 -3 19 3 27 12 13 16
12 17 -8 12 -13 -4 -23 -2 -23 3 0 16 -19 10 -30 -10z"/>
<path d="M635 770 c-3 -5 1 -10 9 -10 9 0 16 5 16 10 0 6 -4 10 -9 10 -6 0
-13 -4 -16 -10z"/>
<path d="M630 738 c0 -4 5 -8 10 -9 42 -4 64 -1 68 9 3 9 -8 12 -37 11 -23 -2
-41 -7 -41 -11z"/>
<path d="M721 734 c0 -11 3 -14 6 -6 3 7 2 16 -1 19 -3 4 -6 -2 -5 -13z"/>
<path d="M710 1555 c-7 -8 -8 -15 -2 -15 5 0 15 7 22 15 7 8 8 15 2 15 -5 0
-15 -7 -22 -15z"/>
<path d="M640 1515 c-8 -9 -8 -15 -2 -15 12 0 26 19 19 26 -2 2 -10 -2 -17
-11z"/>
<path d="M540 1429 c0 -5 5 -7 10 -4 6 3 10 8 10 11 0 2 -4 4 -10 4 -5 0 -10
-5 -10 -11z"/>
<path d="M1553 1045 c0 -27 2 -38 4 -22 2 15 2 37 0 50 -2 12 -4 0 -4 -28z"/>
<path d="M1561 974 c0 -11 3 -14 6 -6 3 7 2 16 -1 19 -3 4 -6 -2 -5 -13z"/>
<path d="M1550 940 c0 -5 5 -10 10 -10 6 0 10 5 10 10 0 6 -4 10 -10 10 -5 0
-10 -4 -10 -10z"/>
<path d="M1550 904 c0 -8 5 -12 10 -9 6 4 8 11 5 16 -9 14 -15 11 -15 -7z"/>
<path d="M1548 863 c-5 -52 -2 -143 5 -143 4 0 7 36 7 80 0 44 -2 80 -5 80 -3
0 -6 -8 -7 -17z"/>
<path d="M361 804 c0 -11 3 -14 6 -6 3 7 2 16 -1 19 -3 4 -6 -2 -5 -13z"/>
<path d="M1535 663 c-13 -85 -15 -122 -6 -127 8 -5 25 163 17 171 -2 2 -7 -18
-11 -44z"/>
<path d="M375 610 c-3 -5 -1 -10 4 -10 6 0 11 5 11 10 0 6 -2 10 -4 10 -3 0
-8 -4 -11 -10z"/>
<path d="M410 600 c0 -5 5 -10 11 -10 5 0 7 5 4 10 -3 6 -8 10 -11 10 -2 0 -4
-4 -4 -10z"/>
<path d="M255 560 c-27 -5 -66 -11 -85 -15 -19 -3 -53 -8 -75 -10 -60 -5 -95
-21 -95 -44 0 -17 5 -19 37 -14 21 3 55 14 76 25 21 10 43 16 49 12 6 -4 8 -3
5 4 -7 10 10 14 120 28 29 3 55 10 59 15 6 10 -19 10 -91 -1z"/>
<path d="M238 522 c-10 -2 -18 -7 -18 -12 0 -13 18 -22 24 -11 3 5 14 7 24 5
20 -5 50 12 39 22 -3 4 -14 1 -23 -6 -10 -9 -18 -10 -22 -4 -4 5 -15 8 -24 6z"/>
<path d="M190 505 c-8 -9 -8 -15 -2 -15 12 0 26 19 19 26 -2 2 -10 -2 -17 -11z"/>
<path d="M1520 505 c0 -8 4 -15 9 -15 5 0 11 7 15 15 3 9 0 15 -9 15 -8 0 -15
-7 -15 -15z"/>
<path d="M370 500 c-10 -6 -6 -9 18 -8 17 1 29 5 26 10 -7 11 -25 10 -44 -2z"/>
<path d="M126 491 c-3 -5 6 -8 19 -8 14 0 25 3 25 8 0 5 -9 9 -19 9 -11 0 -22
-4 -25 -9z"/>
<path d="M1510 464 c0 -11 5 -14 16 -10 9 3 29 6 45 6 16 0 29 5 29 10 0 6
-20 10 -45 10 -35 0 -45 -4 -45 -16z"/>
<path d="M397 433 c-4 -3 -7 -14 -7 -24 0 -14 -13 -18 -77 -24 -43 -4 -89 -14
-103 -22 l-25 -14 30 5 c17 3 69 11 117 17 74 11 86 15 79 28 -5 9 -6 22 -4
29 5 13 0 16 -10 5z"/>
<path d="M40 359 c0 -5 5 -7 10 -4 6 3 10 8 10 11 0 2 -4 4 -10 4 -5 0 -10 -5
-10 -11z"/>
<path d="M100 350 c0 -5 16 -10 35 -10 19 0 35 5 35 10 0 6 -16 10 -35 10 -19
0 -35 -4 -35 -10z"/>
<path d="M300 225 c-14 -16 -10 -18 14 -9 9 3 16 10 16 15 0 14 -16 11 -30 -6z"/>
<path d="M380 215 c-7 -8 -21 -13 -30 -10 -11 4 -23 -3 -34 -19 -23 -36 -20
-44 5 -12 29 37 37 25 9 -14 -26 -37 -93 -160 -86 -160 2 0 17 24 34 53 16 28
51 78 77 110 26 32 45 60 42 63 -2 2 -10 -2 -17 -11z"/>
<path d="M397 193 c-4 -3 -7 -11 -7 -17 0 -6 5 -5 12 2 6 6 9 14 7 17 -3 3 -9
2 -12 -2z"/>
<path d="M350 135 c-13 -14 -21 -25 -18 -25 10 0 51 40 46 45 -2 3 -15 -6 -28
-20z"/>
<path d="M400 144 c0 -9 -22 -41 -50 -71 -27 -30 -50 -59 -50 -64 0 -6 25 -9
57 -7 54 3 57 5 65 33 9 35 0 125 -13 125 -5 0 -9 -7 -9 -16z m-10 -88 c0 -3
-4 -8 -10 -11 -5 -3 -10 -1 -10 4 0 6 5 11 10 11 6 0 10 -2 10 -4z m-20 -36
c0 -5 -5 -10 -11 -10 -5 0 -7 5 -4 10 3 6 8 10 11 10 2 0 4 -4 4 -10z"/>
</g>
</svg>
